<mxfile scale="1" border="0" host="app.diagrams.net" agent="Mozilla/5.0 (Macintosh; Intel Mac OS X 10_15_7) AppleWebKit/537.36 (KHTML, like Gecko) Chrome/141.0.0.0 Safari/537.36" version="28.2.8">
  <diagram name="Page-1" id="wQ5R4CvcMQufJW28zO5s">
    <mxGraphModel dx="2946" dy="2319" grid="1" gridSize="10" guides="1" tooltips="1" connect="1" arrows="1" fold="1" page="1" pageScale="1" pageWidth="827" pageHeight="1169" background="none" math="0" shadow="0">
      <root>
        <mxCell id="0" />
        <mxCell id="1" parent="0" />
        <mxCell id="31II1V7vki-kT47-xSfX-19" value="" style="rounded=1;whiteSpace=wrap;html=1;" parent="1" vertex="1">
          <mxGeometry x="600" y="170" width="380" height="190" as="geometry" />
        </mxCell>
        <mxCell id="31II1V7vki-kT47-xSfX-21" value="Garden Cluster (nodeless)" style="text;html=1;align=center;verticalAlign=middle;whiteSpace=wrap;rounded=0;movable=1;resizable=1;rotatable=1;deletable=1;editable=1;locked=0;connectable=1;" parent="1" vertex="1">
          <mxGeometry x="680" y="200" width="220" height="60" as="geometry" />
        </mxCell>
        <mxCell id="31II1V7vki-kT47-xSfX-25" value="" style="rounded=1;whiteSpace=wrap;html=1;" parent="1" vertex="1">
          <mxGeometry x="980" y="430" width="320" height="310" as="geometry" />
        </mxCell>
        <mxCell id="31II1V7vki-kT47-xSfX-27" value="" style="rounded=1;whiteSpace=wrap;html=1;" parent="1" vertex="1">
          <mxGeometry x="280" y="430" width="320" height="310" as="geometry" />
        </mxCell>
        <mxCell id="31II1V7vki-kT47-xSfX-28" value="" style="rounded=1;whiteSpace=wrap;html=1;" parent="1" vertex="1">
          <mxGeometry x="30" y="810" width="320" height="310" as="geometry" />
        </mxCell>
        <mxCell id="31II1V7vki-kT47-xSfX-29" value="" style="rounded=1;whiteSpace=wrap;html=1;" parent="1" vertex="1">
          <mxGeometry x="990" y="810" width="320" height="310" as="geometry" />
        </mxCell>
        <mxCell id="31II1V7vki-kT47-xSfX-30" value="Seed 1 (AWS)" style="text;html=1;align=center;verticalAlign=middle;whiteSpace=wrap;rounded=0;" parent="1" vertex="1">
          <mxGeometry x="410" y="450" width="60" height="30" as="geometry" />
        </mxCell>
        <mxCell id="31II1V7vki-kT47-xSfX-31" value="" style="rounded=1;whiteSpace=wrap;html=1;" parent="1" vertex="1">
          <mxGeometry x="507" y="810" width="320" height="310" as="geometry" />
        </mxCell>
        <mxCell id="31II1V7vki-kT47-xSfX-32" value="Seed 2 (Azure)" style="text;html=1;align=center;verticalAlign=middle;whiteSpace=wrap;rounded=0;" parent="1" vertex="1">
          <mxGeometry x="1120" y="450" width="60" height="30" as="geometry" />
        </mxCell>
        <mxCell id="31II1V7vki-kT47-xSfX-33" value="Shoot 1 (AWS)" style="text;html=1;align=center;verticalAlign=middle;whiteSpace=wrap;rounded=0;" parent="1" vertex="1">
          <mxGeometry x="160" y="830" width="60" height="30" as="geometry" />
        </mxCell>
        <mxCell id="31II1V7vki-kT47-xSfX-34" value="Shoot 2 (AWS)" style="text;html=1;align=center;verticalAlign=middle;whiteSpace=wrap;rounded=0;" parent="1" vertex="1">
          <mxGeometry x="637" y="830" width="60" height="30" as="geometry" />
        </mxCell>
        <mxCell id="31II1V7vki-kT47-xSfX-36" value="Shoot 3 (Azure)" style="text;html=1;align=center;verticalAlign=middle;whiteSpace=wrap;rounded=0;" parent="1" vertex="1">
          <mxGeometry x="1120" y="830" width="60" height="30" as="geometry" />
        </mxCell>
        <mxCell id="31II1V7vki-kT47-xSfX-37" value="" style="rounded=0;whiteSpace=wrap;html=1;" parent="1" vertex="1">
          <mxGeometry x="300" y="630" width="110" height="90" as="geometry" />
        </mxCell>
        <mxCell id="31II1V7vki-kT47-xSfX-38" value="" style="rounded=0;whiteSpace=wrap;html=1;" parent="1" vertex="1">
          <mxGeometry x="460" y="630" width="120" height="90" as="geometry" />
        </mxCell>
        <mxCell id="31II1V7vki-kT47-xSfX-39" value="" style="aspect=fixed;sketch=0;html=1;dashed=0;whitespace=wrap;verticalLabelPosition=bottom;verticalAlign=top;fillColor=#2875E2;strokeColor=#ffffff;points=[[0.005,0.63,0],[0.1,0.2,0],[0.9,0.2,0],[0.5,0,0],[0.995,0.63,0],[0.72,0.99,0],[0.5,1,0],[0.28,0.99,0]];shape=mxgraph.kubernetes.icon2;prIcon=api" parent="1" vertex="1">
          <mxGeometry x="330" y="651" width="50" height="48" as="geometry" />
        </mxCell>
        <mxCell id="31II1V7vki-kT47-xSfX-40" value="" style="aspect=fixed;sketch=0;html=1;dashed=0;whitespace=wrap;verticalLabelPosition=bottom;verticalAlign=top;fillColor=#2875E2;strokeColor=#ffffff;points=[[0.005,0.63,0],[0.1,0.2,0],[0.9,0.2,0],[0.5,0,0],[0.995,0.63,0],[0.72,0.99,0],[0.5,1,0],[0.28,0.99,0]];shape=mxgraph.kubernetes.icon2;prIcon=api" parent="1" vertex="1">
          <mxGeometry x="495" y="651" width="50" height="48" as="geometry" />
        </mxCell>
        <mxCell id="31II1V7vki-kT47-xSfX-41" value="" style="aspect=fixed;sketch=0;html=1;dashed=0;whitespace=wrap;verticalLabelPosition=bottom;verticalAlign=top;fillColor=#2875E2;strokeColor=#ffffff;points=[[0.005,0.63,0],[0.1,0.2,0],[0.9,0.2,0],[0.5,0,0],[0.995,0.63,0],[0.72,0.99,0],[0.5,1,0],[0.28,0.99,0]];shape=mxgraph.kubernetes.icon2;prIcon=api" parent="1" vertex="1">
          <mxGeometry x="770" y="280" width="50" height="48" as="geometry" />
        </mxCell>
        <mxCell id="31II1V7vki-kT47-xSfX-42" value="" style="rounded=0;whiteSpace=wrap;html=1;" parent="1" vertex="1">
          <mxGeometry x="1095" y="630" width="110" height="90" as="geometry" />
        </mxCell>
        <mxCell id="31II1V7vki-kT47-xSfX-44" value="" style="aspect=fixed;sketch=0;html=1;dashed=0;whitespace=wrap;verticalLabelPosition=bottom;verticalAlign=top;fillColor=#2875E2;strokeColor=#ffffff;points=[[0.005,0.63,0],[0.1,0.2,0],[0.9,0.2,0],[0.5,0,0],[0.995,0.63,0],[0.72,0.99,0],[0.5,1,0],[0.28,0.99,0]];shape=mxgraph.kubernetes.icon2;prIcon=api" parent="1" vertex="1">
          <mxGeometry x="1125" y="651" width="50" height="48" as="geometry" />
        </mxCell>
        <mxCell id="31II1V7vki-kT47-xSfX-46" value="" style="endArrow=classic;html=1;rounded=0;exitX=0.5;exitY=0;exitDx=0;exitDy=0;entryX=0.56;entryY=0.688;entryDx=0;entryDy=0;entryPerimeter=0;" parent="1" source="31II1V7vki-kT47-xSfX-28" target="31II1V7vki-kT47-xSfX-39" edge="1">
          <mxGeometry width="50" height="50" relative="1" as="geometry">
            <mxPoint x="800" y="720" as="sourcePoint" />
            <mxPoint x="850" y="670" as="targetPoint" />
          </mxGeometry>
        </mxCell>
        <mxCell id="31II1V7vki-kT47-xSfX-47" value="" style="endArrow=classic;html=1;rounded=0;exitX=0.5;exitY=0;exitDx=0;exitDy=0;entryX=0.62;entryY=0.667;entryDx=0;entryDy=0;entryPerimeter=0;" parent="1" source="31II1V7vki-kT47-xSfX-31" target="31II1V7vki-kT47-xSfX-40" edge="1">
          <mxGeometry width="50" height="50" relative="1" as="geometry">
            <mxPoint x="460" y="906" as="sourcePoint" />
            <mxPoint x="628" y="780" as="targetPoint" />
          </mxGeometry>
        </mxCell>
        <mxCell id="31II1V7vki-kT47-xSfX-48" value="" style="endArrow=classic;html=1;rounded=0;exitX=0.5;exitY=0;exitDx=0;exitDy=0;entryX=0.54;entryY=0.729;entryDx=0;entryDy=0;entryPerimeter=0;" parent="1" source="31II1V7vki-kT47-xSfX-29" target="31II1V7vki-kT47-xSfX-44" edge="1">
          <mxGeometry width="50" height="50" relative="1" as="geometry">
            <mxPoint x="800" y="720" as="sourcePoint" />
            <mxPoint x="850" y="670" as="targetPoint" />
          </mxGeometry>
        </mxCell>
        <mxCell id="_4MbLpZKBlH7HcVGg_NC-1" value="" style="endArrow=classic;html=1;rounded=0;exitX=0.5;exitY=0;exitDx=0;exitDy=0;entryX=0.48;entryY=0.583;entryDx=0;entryDy=0;entryPerimeter=0;" parent="1" source="31II1V7vki-kT47-xSfX-27" target="31II1V7vki-kT47-xSfX-41" edge="1">
          <mxGeometry width="50" height="50" relative="1" as="geometry">
            <mxPoint x="800" y="720" as="sourcePoint" />
            <mxPoint x="850" y="670" as="targetPoint" />
          </mxGeometry>
        </mxCell>
        <mxCell id="_4MbLpZKBlH7HcVGg_NC-2" value="" style="endArrow=classic;html=1;rounded=0;exitX=0.5;exitY=0;exitDx=0;exitDy=0;entryX=0.6;entryY=0.625;entryDx=0;entryDy=0;entryPerimeter=0;" parent="1" source="31II1V7vki-kT47-xSfX-25" target="31II1V7vki-kT47-xSfX-41" edge="1">
          <mxGeometry width="50" height="50" relative="1" as="geometry">
            <mxPoint x="900" y="572" as="sourcePoint" />
            <mxPoint x="1254" y="450" as="targetPoint" />
          </mxGeometry>
        </mxCell>
        <mxCell id="eesP04h23-4kj15RQOQp-1" value="" style="aspect=fixed;sketch=0;html=1;dashed=0;whitespace=wrap;verticalLabelPosition=bottom;verticalAlign=top;fillColor=#2875E2;strokeColor=#ffffff;points=[[0.005,0.63,0],[0.1,0.2,0],[0.9,0.2,0],[0.5,0,0],[0.995,0.63,0],[0.72,0.99,0],[0.5,1,0],[0.28,0.99,0]];shape=mxgraph.kubernetes.icon2;prIcon=crd" vertex="1" parent="1">
          <mxGeometry x="630" y="250" width="50" height="48" as="geometry" />
        </mxCell>
        <mxCell id="eesP04h23-4kj15RQOQp-2" value="Extension" style="text;html=1;whiteSpace=wrap;strokeColor=none;fillColor=none;align=center;verticalAlign=middle;rounded=0;" vertex="1" parent="1">
          <mxGeometry x="625" y="298" width="60" height="30" as="geometry" />
        </mxCell>
        <mxCell id="eesP04h23-4kj15RQOQp-3" value="&lt;h1 style=&quot;margin-top: 0px;&quot;&gt;&lt;span style=&quot;font-weight: normal;&quot;&gt;&lt;font style=&quot;font-size: 14px;&quot;&gt;1. Extension resource created in the garden runtime cluster. It is reconciled by the Gardener Operator, which deploys extension controller to garden runtime cluster and ControllerRegistration/ControllerDeployment to. the virtual garden cluster.&lt;/font&gt;&lt;/span&gt;&lt;/h1&gt;" style="text;html=1;whiteSpace=wrap;overflow=hidden;rounded=0;" vertex="1" parent="1">
          <mxGeometry width="430" height="410" as="geometry" />
        </mxCell>
        <mxCell id="eesP04h23-4kj15RQOQp-4" value="&lt;h1 style=&quot;margin-top: 0px;&quot;&gt;&lt;font size=&quot;3&quot;&gt;&lt;span style=&quot;font-weight: 400;&quot;&gt;Questions:&lt;/span&gt;&lt;/font&gt;&lt;/h1&gt;&lt;div&gt;&lt;font size=&quot;3&quot;&gt;&lt;span style=&quot;font-weight: 400;&quot;&gt;1. garden runtime cluster vs virtual garden cluster (&lt;/span&gt;&lt;/font&gt;&lt;span style=&quot;background-color: transparent;&quot;&gt;&lt;font size=&quot;3&quot;&gt;https://gardener.cloud/docs/gardener/deployment/setup_gardener/&lt;/font&gt;&lt;/span&gt;&lt;span style=&quot;font-size: medium; background-color: transparent; color: light-dark(rgb(0, 0, 0), rgb(255, 255, 255));&quot;&gt;)&lt;/span&gt;&lt;/div&gt;" style="text;html=1;whiteSpace=wrap;overflow=hidden;rounded=0;" vertex="1" parent="1">
          <mxGeometry x="1205" y="-20" width="445" height="450" as="geometry" />
        </mxCell>
      </root>
    </mxGraphModel>
  </diagram>
</mxfile>
